<svg width="13" height="15" viewBox="0 0 13 15" fill="none" xmlns="http://www.w3.org/2000/svg">
<g id="Frame" clip-path="url(#clip0_45_6775)">
<g id="Group 19486">
<path id="Path 7570" opacity="0.3" fill-rule="evenodd" clip-rule="evenodd" d="M10.3899 10.2394C9.70152 10.2949 9.00878 10.2535 8.33191 10.1165C7.2443 9.64316 6.2238 9.02852 5.29688 8.28845C4.06784 7.60159 2.64232 7.35167 1.25293 7.57946C1.43288 8.52929 1.83705 9.42239 2.43188 10.1844C3.50452 11.4978 4.83098 12.5814 6.33191 13.3705C6.36335 13.3846 6.39741 13.3919 6.43188 13.3919C6.46636 13.3919 6.50042 13.3846 6.53186 13.3705C8.01943 12.6031 9.33281 11.5372 10.3899 10.2394Z" fill="white"/>
<g id="Group 19485">
<g id="Group 19484">
<path id="Path 7571" d="M12.0642 4.41449C12.0802 3.59849 12.0482 2.93545 12.0262 2.59845C12.023 2.56662 12.0131 2.53587 11.9972 2.50812C11.9812 2.48036 11.9597 2.45624 11.9338 2.43738C11.908 2.41851 11.8784 2.40532 11.8471 2.39862C11.8159 2.39192 11.7835 2.39188 11.7522 2.3985C11.6772 2.4115 11.6022 2.42345 11.5282 2.43445C11.0762 2.50351 10.6195 2.53698 10.1622 2.53448C9.77882 2.53169 9.39622 2.49821 9.01816 2.43445C8.70413 2.38171 8.39467 2.30515 8.09226 2.20544C7.84862 2.12387 7.61071 2.02601 7.38022 1.91248C7.20779 1.82648 7.04081 1.72997 6.88022 1.62347C6.82122 1.58347 6.76323 1.54349 6.70823 1.50049C6.65962 1.44933 6.59638 1.41437 6.52719 1.40045C6.45925 1.4027 6.39424 1.42851 6.34324 1.47345C6.25224 1.54145 6.16016 1.60646 6.06516 1.67346C5.89302 1.78232 5.71396 1.87985 5.52915 1.96545C5.2885 2.07782 5.04029 2.17309 4.78623 2.25049C4.47374 2.34508 4.1544 2.41562 3.83115 2.46149C3.44336 2.51677 3.0519 2.54118 2.66025 2.53448C2.19385 2.52603 1.72881 2.48157 1.26926 2.40149C1.23841 2.39487 1.20642 2.39472 1.17551 2.40106C1.1446 2.4074 1.11533 2.42006 1.08957 2.43829C1.06382 2.45653 1.04223 2.47991 1.02597 2.50696C1.00972 2.53401 0.999216 2.56416 0.995213 2.59546C0.921213 3.70446 0.729176 8.34046 2.50718 10.3795C3.5802 11.6924 4.90657 12.776 6.4072 13.5655C6.43871 13.5794 6.47274 13.5865 6.50718 13.5865C6.54161 13.5865 6.57564 13.5794 6.60715 13.5655C8.11448 12.7857 9.44275 11.7003 10.5072 10.3785C11.1011 9.60885 11.5047 8.70972 11.6852 7.75446" stroke="white" stroke-linecap="round" stroke-linejoin="round"/>
</g>
<path id="Path 7572" d="M4.41113 7.41449L6.06421 9.0675L9.19714 5.93445" stroke="white" stroke-linecap="round" stroke-linejoin="round"/>
</g>
</g>
</g>
<defs>
<clipPath id="clip0_45_6775">
<rect width="12.434" height="13.487" fill="white" transform="translate(0.283203 0.75647)"/>
</clipPath>
</defs>
</svg>
