<svg width="18" height="17" viewBox="0 0 18 17" fill="none" xmlns="http://www.w3.org/2000/svg">
<g id="Group 21359">
<path id="Vector" opacity="0.3" d="M15.5552 16.5C16.5371 16.5 17.333 15.7837 17.333 14.9V14C13.833 14.5 13.833 14 11.333 12.5C6.73122 9.73893 2.83301 17 1.33301 3.70009V14.9C1.33301 15.7837 2.12895 16.5 3.11079 16.5H15.5552Z" fill="#4195D5"/>
<path id="Vector_2" d="M17.333 10V3.70009C17.333 2.81644 16.5371 2.1001 15.5552 2.1001H3.11079C2.12895 2.1001 1.33301 2.81644 1.33301 3.70009V14.9C1.33301 15.7837 2.12895 16.5 3.11079 16.5H15.5552C16.5371 16.5 17.333 15.7837 17.333 14.9V14" stroke="#133F5D" stroke-linecap="round" stroke-linejoin="round"/>
<path id="Vector_3" d="M12.8877 0.5V3.69998" stroke="#133F5D" stroke-linecap="round" stroke-linejoin="round"/>
<path id="Vector_4" d="M5.77734 0.5V3.69998" stroke="#133F5D" stroke-linecap="round" stroke-linejoin="round"/>
<path id="Vector_5" d="M1.33301 6.90039H3.83301M17.333 6.90039H7.33301" stroke="#133F5D" stroke-linecap="round" stroke-linejoin="round"/>
</g>
</svg>
