<svg width="12" height="13" viewBox="0 0 12 13" fill="none" xmlns="http://www.w3.org/2000/svg">
<g id="icon redo payment darkblue">
<g id="icon-redo-payment-darkblue">
<path id="Path 12" opacity="0.2" fill-rule="evenodd" clip-rule="evenodd" d="M11.6666 7.76627C11.3362 9.24076 10.4353 10.5244 9.16098 11.3365C7.88668 12.1486 6.34267 12.4231 4.86656 12.0999C3.66463 11.8367 2.58507 11.1795 1.79932 10.2327C2.50004 9.63315 3.35475 9.24192 4.26652 9.10339C5.16256 9.11384 6.05698 9.02445 6.93323 8.83687C8.06632 8.37008 8.60012 6.97047 10.6668 7.37025C10.8516 7.36454 11.0357 7.39673 11.2077 7.46484C11.3796 7.53295 11.5358 7.63553 11.6666 7.76627Z" fill="white"/>
<path id="Path 13" d="M11.2585 4.3638C10.8432 3.09054 9.98531 2.00827 8.84048 1.31323C7.69565 0.618198 6.33966 0.356416 5.01839 0.575355C3.69711 0.794295 2.49803 1.47946 1.63858 2.50661C0.77912 3.53376 0.316192 4.83489 0.333733 6.17407C0.351274 7.51325 0.848123 8.80181 1.73419 9.8061C2.62025 10.8104 3.83687 11.4639 5.16342 11.6482C6.48998 11.8324 7.83865 11.5352 8.96488 10.8104C10.0911 10.0856 10.9203 8.98128 11.3022 7.69757" stroke="white" stroke-width="0.666667" stroke-linecap="round" stroke-linejoin="round"/>
<g id="Group 1">
<path id="Path 14" d="M8.99976 3.76318V5.56325H7.2005" stroke="white" stroke-width="0.666667" stroke-linecap="round" stroke-linejoin="round"/>
<path id="Path 15" d="M8.24664 7.06324C8.0521 7.61536 7.68339 8.08931 7.19607 8.41366C6.70876 8.73802 6.12923 8.89522 5.5448 8.86157C4.96038 8.82792 4.40272 8.60526 3.95584 8.22712C3.50897 7.84898 3.19709 7.33585 3.0672 6.76505C2.9373 6.19425 2.99643 5.5967 3.23568 5.06243C3.47492 4.52815 3.88132 4.0861 4.39363 3.80288C4.90595 3.51966 5.49644 3.4106 6.07612 3.49215C6.65581 3.5737 7.19329 3.84143 7.60759 4.255L8.99951 5.56318" stroke="white" stroke-width="0.666667" stroke-linecap="round" stroke-linejoin="round"/>
</g>
</g>
</g>
</svg>
