<svg width="26" height="23" viewBox="0 0 26 23" fill="none" xmlns="http://www.w3.org/2000/svg">
<g id="Icon Upload">
<g id="Group 2881">
<g id="Icon Download">
<path id="Path 991" opacity="0.15" fill-rule="evenodd" clip-rule="evenodd" d="M1.66663 19.2671V19.4004C1.66663 20.6004 2.59996 21.5338 3.66663 21.5338H22.0666C23.1333 21.5338 24.0666 20.6004 24.0666 19.5338V14.0671C23.4 13.5338 22.6 13.2671 21.8 12.8671C19.2666 12.0671 16.6 12.2004 14.2 13.5338C12.7333 14.7338 11.2666 15.6671 9.53329 16.3338C7.26663 17.0004 3.93329 14.2004 1.66663 18.2004C1.79996 18.4671 1.79996 18.8671 1.66663 19.2671Z" fill="#4199D5"/>
<path id="Path 992" d="M24.3333 13.9336V19.1336C24.3333 20.6003 23.2666 21.6669 21.8 21.6669H4.19996C2.73329 21.6669 1.66663 20.4669 1.66663 19.1336V13.9336" stroke="#4199D5" stroke-width="1.5" stroke-linecap="round" stroke-linejoin="round"/>
<path id="Path 993" d="M6.86633 6.7334L12.2777 1.08678C12.6714 0.675984 13.328 0.675984 13.7217 1.08678L19.133 6.7334" stroke="#4199D5" stroke-width="1.5" stroke-linecap="round" stroke-linejoin="round"/>
<path id="Line 370" d="M13.0001 1.53353V14.2002" stroke="#4199D5" stroke-width="1.5" stroke-linecap="round" stroke-linejoin="round"/>
</g>
</g>
</g>
</svg>
