<svg width="157" height="56" viewBox="0 0 157 56" fill="none" xmlns="http://www.w3.org/2000/svg">
<g id="paperlogofinal-white-modify 1">
<g id="layer1">
<g id="g4185">
<g id="text4136">
<path id="path4675" d="M76.8495 23.4717C76.8191 21.4373 76.2163 20.006 75.0412 19.1777C73.8661 18.3495 72.301 17.9498 70.3457 17.9789H64.3086V36.7822H67.2251V29.1388H70.6665C72.5829 29.157 74.0873 28.7211 75.1798 27.831C76.2722 26.941 76.8288 25.4879 76.8495 23.4717ZM73.8746 23.4717C73.8607 24.7843 73.5459 25.6901 72.9304 26.189C72.3149 26.6879 71.4825 26.9253 70.4332 26.901H67.2251V20.2167H70.2874C71.3173 20.178 72.1667 20.3717 72.8357 20.7979C73.5046 21.2242 73.8509 22.1154 73.8746 23.4717Z" fill="white"/>
<path id="path4677" d="M96.9019 36.782L89.7857 17.9786H87.2192L79.5488 36.782H82.6111L84.5943 31.4636H91.8272L93.6938 36.782H96.9019ZM91.0981 29.2839H85.4109L88.3566 21.3499L91.0981 29.2839Z" fill="white"/>
<path id="path4679" d="M113.398 23.4714C113.368 21.4371 112.765 20.0058 111.59 19.1775C110.415 18.3492 108.85 17.9496 106.895 17.9786H100.857V36.782H103.774V29.1386H107.215C109.132 29.1568 110.636 28.7208 111.729 27.8308C112.821 26.9408 113.378 25.4876 113.398 23.4714ZM110.423 23.4714C110.409 24.7841 110.095 25.6899 109.479 26.1888C108.864 26.6877 108.031 26.925 106.982 26.9008H103.774V20.2165H106.836C107.866 20.1777 108.715 20.3715 109.384 20.7977C110.053 21.224 110.4 22.1152 110.423 23.4714Z" fill="white"/>
<path id="path4681" d="M129.077 36.782V34.5442H120.911V28.1795H128.202V25.9417H120.911V20.2164H128.814V17.9786H117.994V36.782H129.077Z" fill="white"/>
<path id="path4683" d="M148.383 36.7819L142.229 28.5864C144.097 28.3623 145.407 27.7496 146.159 26.7482C146.911 25.7467 147.273 24.5673 147.245 23.2098C147.174 21.1609 146.514 19.766 145.266 19.0248C144.017 18.2838 142.606 17.935 141.033 17.9786H134.559V36.7819H137.475V28.6736H138.846L144.854 36.7819H148.383ZM144.27 23.2098C144.281 24.1453 144.048 24.9118 143.571 25.5094C143.093 26.107 142.305 26.4158 141.208 26.4357H137.475V20.2164H141.179C142.201 20.2231 142.971 20.4858 143.49 21.0047C144.009 21.5236 144.269 22.2587 144.27 23.2098Z" fill="white"/>
</g>
<g id="g4175">
<path id="path17864" d="M25.7248 50.9285C38.8957 50.9285 49.5727 40.2889 49.5727 27.1644C49.5727 14.0398 38.8957 3.40027 25.7248 3.40027C12.554 3.40027 1.87695 14.0398 1.87695 27.1644C1.87695 40.2889 12.554 50.9285 25.7248 50.9285Z" fill="white"/>
<path id="path17864 (Stroke)" fill-rule="evenodd" clip-rule="evenodd" d="M25.724 4.26989C13.0345 4.26989 2.74835 14.5205 2.74835 27.1644C2.74835 39.8084 13.0345 50.059 25.724 50.059C38.4135 50.059 48.6997 39.8084 48.6997 27.1644C48.6997 14.5205 38.4135 4.26989 25.724 4.26989ZM1.00391 27.1644C1.00391 13.5592 12.0719 2.53076 25.724 2.53076C39.3762 2.53076 50.4441 13.5592 50.4441 27.1644C50.4441 40.7696 39.3762 51.7981 25.724 51.7981C12.0719 51.7981 1.00391 40.7696 1.00391 27.1644Z" fill="#4199D5"/>
<g id="g18010">
<path id="path17944" fill-rule="evenodd" clip-rule="evenodd" d="M23.2592 41.6063C19.231 38.3816 16.8021 33.2299 16.8905 28.0634C16.9155 25.948 17.3502 23.8377 18.3379 22.0146C19.3255 20.1915 20.8959 18.6686 22.7994 17.9305C24.9009 17.1177 27.3966 17.3192 29.3176 18.5087C30.2841 19.0962 31.1114 19.9202 31.6974 20.8934C32.2834 21.8665 32.6278 22.9897 32.6793 24.1308C32.7599 26.2869 31.7638 28.4548 30.1318 29.9352C28.5008 31.4148 26.2805 32.2197 24.0414 32.2824C21.4285 32.3525 18.7759 31.4083 16.8693 29.6187C14.963 27.8295 13.8456 25.1929 13.999 22.5787C14.0758 21.1266 14.5311 19.6929 15.2885 18.4356C16.0459 17.1783 17.1016 16.0985 18.3355 15.2804C20.8134 13.6601 23.9516 13.1401 26.892 13.6458C30.8074 14.3255 34.3762 16.8254 36.3461 20.2854C34.4093 16.8079 30.8546 14.258 26.9118 13.5355C23.956 12.989 20.7642 13.4693 18.2133 15.0922C16.9328 15.8957 15.8182 16.9769 15.0014 18.2588C14.1848 19.5406 13.6693 21.0234 13.55 22.5494C13.35 25.3008 14.4855 28.0984 16.4807 30.024C18.4755 31.9492 21.2724 32.9909 24.0547 32.9549C26.4345 32.9268 28.8454 32.1104 30.657 30.52C32.4676 28.9303 33.6303 26.5508 33.5789 24.1051C33.5605 22.8123 33.2106 21.5237 32.574 20.3886C31.9374 19.2537 31.0174 18.2763 29.9193 17.5615C27.711 16.1467 24.8302 15.8659 22.3613 16.7773C20.1249 17.601 18.3062 19.3254 17.1559 21.3649C16.0056 23.4044 15.4947 25.7385 15.4284 28.0333C15.2933 33.6482 17.8848 39.2668 22.2684 42.8262L23.2592 41.6063Z" fill="#4199D5"/>
<path id="path17944 (Stroke)" fill-rule="evenodd" clip-rule="evenodd" d="M18.0258 14.7984C20.6601 13.1228 23.9433 12.6331 26.9745 13.1934C31.0196 13.9348 34.6631 16.5483 36.6504 20.1166L36.0419 20.4571C34.1236 17.0877 30.6443 14.6505 26.8318 13.9885C23.9678 13.496 20.9218 14.0051 18.5271 15.5707C17.3344 16.3616 16.3161 17.4042 15.5869 18.6147C14.8575 19.8255 14.4204 21.2043 14.3467 22.5971L14.3466 22.599C14.2642 24.0027 14.5647 25.4165 15.1675 26.6915C15.3675 24.7902 15.8913 22.8961 16.8511 21.1944C18.035 19.0952 19.9132 17.308 22.2395 16.4512C24.8081 15.5029 27.804 15.7932 30.1072 17.2689L30.1093 17.2703C31.254 18.0153 32.2133 19.0342 32.8778 20.2189C33.5421 21.4034 33.9077 22.7482 33.927 24.0992C33.9803 26.6567 32.7665 29.1308 30.8868 30.781C29.0055 32.4326 26.5116 33.2737 24.0585 33.3027C21.7431 33.3327 19.4155 32.6395 17.518 31.323C18.252 35.2187 20.3836 38.8588 23.477 41.3351L23.7501 41.5538L22.3187 43.3162L22.0474 43.0959C17.8179 39.6616 15.2272 34.3503 15.0804 28.9382C13.7461 27.0913 13.0362 24.7961 13.2013 22.5242L13.2015 22.5223C13.3254 20.9371 13.8605 19.3998 14.7062 18.0723C15.5519 16.745 16.7042 15.6279 18.0258 14.7984ZM15.8285 29.8551C16.215 34.6216 18.5466 39.2259 22.219 42.3335L22.7693 41.656C19.4968 38.9193 17.3111 34.9232 16.7078 30.7001C16.5467 30.5631 16.3898 30.421 16.2373 30.2739C16.0969 30.1384 15.9606 29.9987 15.8285 29.8551ZM25.4713 32.4934C27.2896 32.2227 29.0423 31.4734 30.4257 30.2589C32.1669 28.7302 33.2784 26.4458 33.2293 24.1124L33.2293 24.1101C33.2118 22.8757 32.8775 21.6437 32.2688 20.5584C31.6603 19.4735 30.78 18.5378 29.7289 17.8535C27.6158 16.5001 24.8506 16.229 22.4818 17.1035C20.3353 17.8941 18.5759 19.5556 17.4593 21.5354C16.3844 23.4411 15.8797 25.6216 15.7855 27.7913C16.0149 28.1398 16.2687 28.4722 16.5447 28.7848C16.5381 28.5428 16.5368 28.3007 16.5409 28.0584C16.5666 25.9008 17.0099 23.7326 18.0302 21.8493C19.0506 19.9658 20.6795 18.379 22.6723 17.6064C24.8724 16.7554 27.483 16.9643 29.4998 18.2125C30.5132 18.8288 31.3806 19.6928 31.9958 20.7144C32.6112 21.7363 32.973 22.9156 33.0271 24.1151L33.0273 24.1178C33.1121 26.3861 32.0663 28.6499 30.3659 30.1925C29.0158 31.4172 27.2851 32.1934 25.4713 32.4934ZM17.2811 29.5239C17.2447 29.0402 17.2303 28.5548 17.2386 28.0694L17.2386 28.0676C17.2632 25.9946 17.6892 23.9425 18.6442 22.1799C19.599 20.4173 21.1108 18.9583 22.9249 18.2548C24.9273 17.4803 27.3077 17.6741 29.1329 18.8042L29.1353 18.8057C30.0543 19.3643 30.8409 20.1481 31.3976 21.0725C31.9539 21.9963 32.2809 23.063 32.33 24.1451C32.406 26.1886 31.4595 28.2599 29.8963 29.678C28.3342 31.0951 26.1968 31.874 24.0313 31.9348C21.5834 32.0004 19.1025 31.1442 17.2811 29.5239Z" fill="#4199D5"/>
<g id="g18005">
<path id="path17968" fill-rule="evenodd" clip-rule="evenodd" d="M45.0608 21.1838L37.8143 22.7377L36.3008 19.5842L45.0608 21.1838Z" fill="#A5ED5E"/>
<path id="path17972" fill-rule="evenodd" clip-rule="evenodd" d="M36.2284 19.63L34.8066 22.0523L37.1916 21.6866L36.2284 19.63Z" fill="#A5ED5E"/>
<path id="path17970" fill-rule="evenodd" clip-rule="evenodd" d="M36.1388 19.3101L34.7305 17.0573L45.061 21.1382L36.1388 19.3101Z" fill="#A5ED5E"/>
</g>
</g>
<path id="path18027" fill-rule="evenodd" clip-rule="evenodd" d="M15.4155 28.2107C15.822 28.8576 16.2147 29.569 17.038 29.9392L16.9449 29.108C16.4442 28.448 16.1354 28.256 15.8083 27.766C15.7247 27.6324 15.4297 27.295 15.4297 27.295C15.3197 27.6003 15.4159 27.9055 15.4155 28.2107Z" fill="#4199D5"/>
</g>
</g>
</g>
</g>
</svg>
